<svg width="56" height="87" viewBox="0 0 56 87" fill="none" xmlns="http://www.w3.org/2000/svg">
<path d="M18.4232 21.7789L22.7224 21.7789C22.9666 21.7789 23.2001 21.6718 23.3646 21.4844L34.9831 7.97449L34.9831 59.5716C34.9831 59.8072 35.1742 60 35.4077 60L38.5923 60C38.8258 60 39.0169 59.8072 39.0169 59.5716L39.0169 7.97449L50.6354 21.4844C50.7946 21.6718 51.0281 21.7789 51.2776 21.7789L55.5768 21.7789C55.9377 21.7789 56.1341 21.3451 55.8952 21.072L38.2791 0.590426C38.1199 0.405093 37.923 0.25646 37.7019 0.154591C37.4807 0.0527232 37.2405 3.56917e-06 36.9973 3.54791e-06C36.7542 3.52666e-06 36.514 0.0527231 36.2928 0.154591C36.0717 0.256459 35.8748 0.405093 35.7156 0.590426L18.1048 21.072C17.8659 21.3505 18.0623 21.7789 18.4232 21.7789Z" fill="#4F3CA0"/>
<path d="M37.5768 65.2211L33.2776 65.2211C33.0334 65.2211 32.7999 65.3282 32.6354 65.5156L21.0169 79.0255L21.0169 27.4284C21.0169 27.1928 20.8258 27 20.5923 27L17.4077 27C17.1742 27 16.9831 27.1928 16.9831 27.4284L16.9831 79.0255L5.36465 65.5156C5.20542 65.3282 4.97189 65.2211 4.72243 65.2211L0.423232 65.2211C0.0623116 65.2211 -0.134071 65.6549 0.104773 65.928L17.7209 86.4096C17.8801 86.5949 18.077 86.7435 18.2981 86.8454C18.5193 86.9473 18.7595 87 19.0027 87C19.2458 87 19.486 86.9473 19.7072 86.8454C19.9284 86.7435 20.1252 86.5949 20.2845 86.4096L37.8952 65.928C38.1341 65.6495 37.9377 65.2211 37.5768 65.2211Z" fill="#4F3CA0"/>
</svg>
